<svg xmlns="http://www.w3.org/2000/svg" viewBox="0 0 1280 720" width="1280" height="720">
  <defs>
    <linearGradient id="headerGradient" x1="0%" y1="0%" x2="100%" y2="0%">
      <stop offset="0%" stop-color="#1565C0" />
      <stop offset="100%" stop-color="#4CAF50" />
    </linearGradient>
  </defs>

  
  <rect width="1280" height="720" fill="#FFFFFF" />

  
  <rect x="0" y="0" width="1280" height="80" fill="url(#headerGradient)" />
  <text x="60" y="50" font-family="Microsoft YaHei, PingFang SC, Segoe UI, sans-serif" font-size="36" font-weight="700" fill="#FFFFFF">
    技术选型
  </text>

  
  <g id="content">
    
    <g id="column-1">
      <path fill="#F5F7FA" d="M72,120 H408 A12,12 0 0 1 420,132 V628 A12,12 0 0 1 408,640 H72 A12,12 0 0 1 60,628 V132 A12,12 0 0 1 72,120 Z" />

      <path fill="#1565C0" d="M72,120 H408 A12,12 0 0 1 420,132 V168 A12,12 0 0 1 408,180 H72 A12,12 0 0 1 60,168 V132 A12,12 0 0 1 72,120 Z" />
      <rect x="60" y="140" width="360" height="40" fill="#1565C0" />

      <text x="240" y="160" font-family="Microsoft YaHei, PingFang SC, Segoe UI, sans-serif" font-size="24" font-weight="600" fill="#FFFFFF" text-anchor="middle">
        前端技术栈
      </text>

      <g id="frontend-items">
        <text x="90" y="230" font-family="Microsoft YaHei, PingFang SC, Segoe UI, sans-serif" font-size="18" font-weight="600" fill="#1D1D1F">
          Vue 3
        </text>
        <text x="90" y="255" font-family="Microsoft YaHei, PingFang SC, Segoe UI, sans-serif" font-size="15" fill="#6C757D">
          Composition API
        </text>

        <text x="90" y="300" font-family="Microsoft YaHei, PingFang SC, Segoe UI, sans-serif" font-size="18" font-weight="600" fill="#1D1D1F">
          TypeScript 4.9+
        </text>

        <text x="90" y="355" font-family="Microsoft YaHei, PingFang SC, Segoe UI, sans-serif" font-size="18" font-weight="600" fill="#1D1D1F">
          Element Plus
        </text>
        <text x="90" y="380" font-family="Microsoft YaHei, PingFang SC, Segoe UI, sans-serif" font-size="15" fill="#6C757D">
          UI组件库
        </text>

        <text x="90" y="425" font-family="Microsoft YaHei, PingFang SC, Segoe UI, sans-serif" font-size="18" font-weight="600" fill="#1D1D1F">
          Vite 5
        </text>
        <text x="90" y="450" font-family="Microsoft YaHei, PingFang SC, Segoe UI, sans-serif" font-size="15" fill="#6C757D">
          构建工具
        </text>

        <text x="90" y="495" font-family="Microsoft YaHei, PingFang SC, Segoe UI, sans-serif" font-size="18" font-weight="600" fill="#1D1D1F">
          Pinia
        </text>
        <text x="90" y="520" font-family="Microsoft YaHei, PingFang SC, Segoe UI, sans-serif" font-size="15" fill="#6C757D">
          状态管理
        </text>
      </g>
    </g>

    
    <g id="column-2">
      <path fill="#F5F7FA" d="M472,120 H808 A12,12 0 0 1 820,132 V628 A12,12 0 0 1 808,640 H472 A12,12 0 0 1 460,628 V132 A12,12 0 0 1 472,120 Z" />

      <path fill="#1565C0" d="M472,120 H808 A12,12 0 0 1 820,132 V168 A12,12 0 0 1 808,180 H472 A12,12 0 0 1 460,168 V132 A12,12 0 0 1 472,120 Z" />
      <rect x="460" y="140" width="360" height="40" fill="#1565C0" />

      <text x="640" y="160" font-family="Microsoft YaHei, PingFang SC, Segoe UI, sans-serif" font-size="24" font-weight="600" fill="#FFFFFF" text-anchor="middle">
        后端技术栈
      </text>

      <g id="backend-items">
        <text x="490" y="230" font-family="Microsoft YaHei, PingFang SC, Segoe UI, sans-serif" font-size="18" font-weight="600" fill="#1D1D1F">
          Java 17
        </text>

        <text x="490" y="285" font-family="Microsoft YaHei, PingFang SC, Segoe UI, sans-serif" font-size="18" font-weight="600" fill="#1D1D1F">
          Spring Boot 3.4
        </text>

        <text x="490" y="340" font-family="Microsoft YaHei, PingFang SC, Segoe UI, sans-serif" font-size="18" font-weight="600" fill="#1D1D1F">
          MyBatis-Plus 3.5
        </text>

        <text x="490" y="395" font-family="Microsoft YaHei, PingFang SC, Segoe UI, sans-serif" font-size="18" font-weight="600" fill="#1D1D1F">
          MySQL 8.0
        </text>

        <text x="490" y="450" font-family="Microsoft YaHei, PingFang SC, Segoe UI, sans-serif" font-size="18" font-weight="600" fill="#1D1D1F">
          Redis 7
        </text>
      </g>
    </g>

    
    <g id="column-3">
      <path fill="#F5F7FA" d="M872,120 H1208 A12,12 0 0 1 1220,132 V628 A12,12 0 0 1 1208,640 H872 A12,12 0 0 1 860,628 V132 A12,12 0 0 1 872,120 Z" />

      <path fill="#1565C0" d="M872,120 H1208 A12,12 0 0 1 1220,132 V168 A12,12 0 0 1 1208,180 H872 A12,12 0 0 1 860,168 V132 A12,12 0 0 1 872,120 Z" />
      <rect x="860" y="140" width="360" height="40" fill="#1565C0" />

      <text x="1040" y="160" font-family="Microsoft YaHei, PingFang SC, Segoe UI, sans-serif" font-size="24" font-weight="600" fill="#FFFFFF" text-anchor="middle">
        基础设施
      </text>

      <g id="infra-items">
        <text x="890" y="230" font-family="Microsoft YaHei, PingFang SC, Segoe UI, sans-serif" font-size="18" font-weight="600" fill="#1D1D1F">
          Docker Compose
        </text>
        <text x="890" y="255" font-family="Microsoft YaHei, PingFang SC, Segoe UI, sans-serif" font-size="15" fill="#6C757D">
          本地开发
        </text>

        <text x="890" y="300" font-family="Microsoft YaHei, PingFang SC, Segoe UI, sans-serif" font-size="18" font-weight="600" fill="#1D1D1F">
          GitHub Actions
        </text>
        <text x="890" y="325" font-family="Microsoft YaHei, PingFang SC, Segoe UI, sans-serif" font-size="15" fill="#6C757D">
          CI/CD
        </text>

        <text x="890" y="370" font-family="Microsoft YaHei, PingFang SC, Segoe UI, sans-serif" font-size="18" font-weight="600" fill="#1D1D1F">
          Flyway
        </text>
        <text x="890" y="395" font-family="Microsoft YaHei, PingFang SC, Segoe UI, sans-serif" font-size="15" fill="#6C757D">
          数据库版本管理
        </text>

        <text x="890" y="440" font-family="Microsoft YaHei, PingFang SC, Segoe UI, sans-serif" font-size="18" font-weight="600" fill="#1D1D1F">
          MailHog
        </text>
        <text x="890" y="465" font-family="Microsoft YaHei, PingFang SC, Segoe UI, sans-serif" font-size="15" fill="#6C757D">
          邮件测试
        </text>
      </g>
    </g>
  </g>

  
  <text x="1220" y="705" font-family="Microsoft YaHei, PingFang SC, Segoe UI, sans-serif" font-size="12" fill="#ADB5BD" text-anchor="end">
    3
  </text>
</svg>