<svg xmlns="http://www.w3.org/2000/svg" viewBox="0 0 1280 720" width="1280" height="720">
<defs><linearGradient id="hg" x1="0%" y1="0%" x2="100%" y2="0%"><stop offset="0%" stop-color="#1565C0" /><stop offset="100%" stop-color="#4CAF50" /></linearGradient></defs>
<rect width="1280" height="720" fill="#FFF" /><rect width="1280" height="80" fill="url(#hg)" />
<text x="60" y="50" font-family="Microsoft YaHei" font-size="36" font-weight="700" fill="#FFF">工作流引擎技术创新</text>
<path fill="#E3F2FD" d="M92,140 H428 A12,12 0 0 1 440,152 V608 A12,12 0 0 1 428,620 H92 A12,12 0 0 1 80,608 V152 A12,12 0 0 1 92,140 Z" /><text x="260" y="190" font-family="Microsoft YaHei" font-size="24" font-weight="600" fill="#1565C0" text-anchor="middle">图结构定义</text>
<text x="120" y="240" font-family="Microsoft YaHei" font-size="18" fill="#1D1D1F">• schemaVersion 2</text>
<text x="120" y="275" font-family="Microsoft YaHei" font-size="18" fill="#1D1D1F">• nodes + edges 拓扑</text>
<text x="120" y="310" font-family="Microsoft YaHei" font-size="18" fill="#1D1D1F">• 4维分层路由</text>
<path fill="#E8F5E9" d="M472,140 H808 A12,12 0 0 1 820,152 V608 A12,12 0 0 1 808,620 H472 A12,12 0 0 1 460,608 V152 A12,12 0 0 1 472,140 Z" /><text x="640" y="190" font-family="Microsoft YaHei" font-size="24" font-weight="600" fill="#4CAF50" text-anchor="middle">业务回调解耦</text>
<text x="500" y="240" font-family="Microsoft YaHei" font-size="18" fill="#1D1D1F">• Spring Event 发布</text>
<text x="500" y="275" font-family="Microsoft YaHei" font-size="18" fill="#1D1D1F">• 业务监听更新状态</text>
<text x="500" y="310" font-family="Microsoft YaHei" font-size="18" fill="#1D1D1F">• 零依赖业务代码</text>
<path fill="#FFF3E0" d="M852,140 H1208 A12,12 0 0 1 1220,152 V608 A12,12 0 0 1 1208,620 H852 A12,12 0 0 1 840,608 V152 A12,12 0 0 1 852,140 Z" /><text x="1030" y="190" font-family="Microsoft YaHei" font-size="24" font-weight="600" fill="#FF6B35" text-anchor="middle">动态路由算法</text>
<text x="880" y="240" font-family="Microsoft YaHei" font-size="18" fill="#1D1D1F">• role_chain 角色链</text>
<text x="880" y="275" font-family="Microsoft YaHei" font-size="18" fill="#1D1D1F">• initiator_level_match</text>
<text x="880" y="310" font-family="Microsoft YaHei" font-size="18" fill="#1D1D1F">• escalateTo 升级路由</text>
<text x="1220" y="705" font-family="Microsoft YaHei" font-size="12" fill="#ADB5BD" text-anchor="end">10</text>
</svg>